<?xml version="1.0" standalone="no"?>
<!DOCTYPE svg PUBLIC "-//W3C//DTD SVG 20010904//EN"
 "http://www.w3.org/TR/2001/REC-SVG-20010904/DTD/svg10.dtd">
<svg version="1.0" xmlns="http://www.w3.org/2000/svg"
 width="571.000000pt" height="571.000000pt" viewBox="0 0 571.000000 571.000000"
 preserveAspectRatio="xMidYMid meet">
<metadata>
Created by potrace 1.11, written by Peter Selinger 2001-2013
</metadata>
<g transform="translate(0.000000,571.000000) scale(0.100000,-0.100000)"
fill="#000000" stroke="none">
<path d="M3073 3813 c-8 -21 -58 -139 -110 -263 -52 -124 -149 -353 -215 -510
-66 -157 -126 -298 -133 -315 -11 -23 -162 -381 -192 -452 -4 -10 15 -13 78
-13 l84 0 29 73 c16 39 37 90 47 112 10 22 34 81 55 130 20 50 44 108 54 130
10 22 30 69 45 105 15 36 33 79 40 95 8 17 36 84 64 150 56 134 220 525 287
683 24 57 44 106 44 108 0 2 -36 4 -81 4 l-80 0 -16 -37z"/>
<path d="M1668 3277 l-326 -272 21 -20 c12 -11 90 -76 172 -145 83 -68 155
-129 161 -135 6 -5 33 -28 60 -50 26 -22 90 -75 141 -117 51 -43 97 -78 101
-78 4 0 30 23 57 51 l50 50 -30 26 c-16 14 -46 40 -66 57 -20 17 -54 45 -75
61 -20 17 -42 35 -48 40 -6 6 -36 30 -66 55 -30 25 -57 47 -60 50 -3 3 -44 38
-92 79 -49 40 -88 74 -88 76 0 2 182 154 395 328 66 54 121 102 123 106 2 6
-92 112 -100 110 -2 0 -150 -122 -330 -272z"/>
<path d="M3661 3496 l-52 -53 153 -127 c84 -71 173 -144 198 -164 24 -21 75
-63 113 -95 l68 -59 -28 -21 c-15 -12 -30 -24 -33 -27 -3 -3 -43 -37 -90 -75
-47 -38 -94 -77 -105 -87 -11 -9 -65 -53 -120 -98 -55 -45 -113 -92 -128 -105
l-28 -22 54 -56 54 -55 29 25 c16 14 46 39 68 56 21 18 44 37 50 44 7 6 42 35
77 64 35 30 73 61 84 70 11 10 81 68 155 129 74 62 147 124 163 138 l27 26
-22 21 c-13 11 -88 74 -168 140 -80 66 -147 122 -150 125 -6 6 -276 229 -301
247 -13 10 -24 4 -68 -41z"/>
</g>
</svg>
